<svg width="12" height="11" viewBox="0 0 12 11" fill="none" xmlns="http://www.w3.org/2000/svg">
<mask id="path-1-inside-1_194_727" fill="white">
<path d="M11.6875 11H8.25V0H11.6875V11ZM9.10938 10.1538H10.8281V0.846154H9.10938V10.1538Z"/>
</mask>
<path d="M11.6875 11H8.25V0H11.6875V11ZM9.10938 10.1538H10.8281V0.846154H9.10938V10.1538Z" fill="black"/>
<path d="M11.6875 11V12H12.6875V11H11.6875ZM8.25 11H7.25V12H8.25V11ZM8.25 0V-1H7.25V0H8.25ZM11.6875 0H12.6875V-1H11.6875V0ZM9.10938 10.1538H8.10938V11.1538H9.10938V10.1538ZM10.8281 10.1538V11.1538H11.8281V10.1538H10.8281ZM10.8281 0.846154H11.8281V-0.153846H10.8281V0.846154ZM9.10938 0.846154V-0.153846H8.10938V0.846154H9.10938ZM11.6875 10H8.25V12H11.6875V10ZM9.25 11V0H7.25V11H9.25ZM8.25 1H11.6875V-1H8.25V1ZM10.6875 0V11H12.6875V0H10.6875ZM9.10938 11.1538H10.8281V9.15385H9.10938V11.1538ZM11.8281 10.1538V0.846154H9.82812V10.1538H11.8281ZM10.8281 -0.153846H9.10938V1.84615H10.8281V-0.153846ZM8.10938 0.846154V10.1538H10.1094V0.846154H8.10938Z" fill="black" mask="url(#path-1-inside-1_194_727)"/>
<path d="M7.0625 10.5H4.625V3.9375H7.0625V10.5Z" fill="black" stroke="black"/>
<path d="M10.5 10.5H9.5V0.5H10.5V10.5Z" fill="black" stroke="black"/>
<path d="M3.4375 11H0V6.1875H3.4375V11Z" fill="black"/>
</svg>
