<svg width="148" height="50" viewBox="0 0 148 50" fill="none" xmlns="http://www.w3.org/2000/svg">
<path d="M0 24C0 15.5992 0 11.3988 1.6349 8.19014C3.073 5.36771 5.36771 3.073 8.19014 1.6349C11.3988 0 15.5992 0 24 0H26C34.4008 0 38.6012 0 41.8099 1.6349C44.6323 3.073 46.927 5.36771 48.3651 8.19014C50 11.3988 50 15.5992 50 24V26C50 34.4008 50 38.6012 48.3651 41.8099C46.927 44.6323 44.6323 46.927 41.8099 48.3651C38.6012 50 34.4008 50 26 50H24C15.5992 50 11.3988 50 8.19014 48.3651C5.36771 46.927 3.073 44.6323 1.6349 41.8099C0 38.6012 0 34.4008 0 26V24Z" fill="#FFC403"/>
<path d="M25.2898 36.911C22.8732 36.911 20.6845 36.3911 18.7239 35.3514C16.7861 34.289 15.2586 32.8312 14.1415 30.9777C13.0472 29.1243 12.5 27.0336 12.5 24.7055C12.5 22.3774 13.0586 20.2866 14.1757 18.4332C15.2928 16.5798 16.8203 15.1332 18.7581 14.0935C20.7187 13.0312 22.9074 12.5 25.324 12.5C27.2846 12.5 29.0743 12.839 30.693 13.5171C32.3116 14.1952 33.6795 15.1784 34.7966 16.4668L31.9241 19.1452C30.1914 17.2918 28.0598 16.3651 25.5292 16.3651C23.8877 16.3651 22.4172 16.7267 21.1177 17.45C19.8182 18.1507 18.8037 19.1339 18.0742 20.3997C17.3446 21.6654 16.9798 23.1007 16.9798 24.7055C16.9798 26.3103 17.3446 27.7455 18.0742 29.0113C18.8037 30.2771 19.8182 31.2716 21.1177 31.9949C22.4172 32.6956 23.8877 33.0459 25.5292 33.0459C28.0598 33.0459 30.1914 32.1079 31.9241 30.2319L34.7966 32.9442C33.6795 34.2325 32.3002 35.2158 30.6588 35.8938C29.0401 36.5719 27.2504 36.911 25.2898 36.911Z" fill="white"/>
<path d="M38.125 29.0825C38.125 28.141 37.4959 27.5 36.5625 27.5C35.6494 27.5 35 28.141 35 29.0825C35 29.984 35.6494 30.625 36.5625 30.625C37.4959 30.625 38.125 29.984 38.125 29.0825Z" fill="white"/>
<path d="M66.038 32.27C69.278 32.27 71.87 30.11 72.356 26.906H70.25C69.89 28.994 68.198 30.488 66.056 30.488C63.5 30.488 61.7 28.418 61.7 25.52C61.7 22.658 63.5 20.588 66.056 20.588C68.198 20.588 69.89 22.064 70.25 24.152H72.356C71.87 20.966 69.278 18.806 66.038 18.806C62.438 18.806 59.648 21.722 59.648 25.52C59.648 29.336 62.438 32.27 66.038 32.27ZM78.2658 32.18C80.9658 32.18 82.9458 30.056 82.9458 27.23C82.9458 24.404 80.9658 22.28 78.2658 22.28C75.5658 22.28 73.5858 24.404 73.5858 27.23C73.5858 30.056 75.5658 32.18 78.2658 32.18ZM78.2658 30.578C76.6998 30.578 75.4758 29.318 75.4758 27.23C75.4758 25.142 76.6998 23.9 78.2658 23.9C79.8318 23.9 81.0738 25.142 81.0738 27.23C81.0738 29.318 79.8318 30.578 78.2658 30.578ZM90.7571 28.076C90.7571 29.57 89.7671 30.578 88.5431 30.578C87.3551 30.578 86.5271 29.894 86.5271 28.238V22.46H84.7091V28.598C84.7091 31.046 86.0411 32.18 87.9671 32.18C89.2631 32.18 90.3791 31.478 90.8831 30.488V32H92.5751V22.46H90.7571V28.076ZM96.9178 27.122C96.9178 25.016 98.4118 24.116 100.464 24.224V22.334C98.8978 22.334 97.4578 23.162 96.7918 24.476V22.46H95.0998V32H96.9178V27.122ZM109.463 29.156C109.463 27.788 108.563 26.96 106.673 26.618L105.053 26.312C103.901 26.096 103.415 25.736 103.415 24.962C103.415 24.134 104.189 23.648 105.341 23.648C106.619 23.648 107.465 24.314 107.573 25.466H109.319C109.157 23.504 107.609 22.28 105.323 22.28C103.109 22.28 101.651 23.45 101.651 25.124C101.651 26.564 102.641 27.464 104.405 27.806L105.953 28.094C107.141 28.328 107.627 28.67 107.627 29.462C107.627 30.362 106.781 30.812 105.503 30.812C104.045 30.812 103.091 30.074 103.019 28.886H101.273C101.453 30.938 102.947 32.18 105.467 32.18C108.005 32.18 109.463 31.028 109.463 29.156ZM113.266 26.618C113.266 24.926 114.31 23.882 115.552 23.882C116.902 23.882 117.622 24.8 117.622 26.438V32H119.439V25.826C119.439 23.54 118.144 22.28 116.182 22.28C114.868 22.28 113.896 22.964 113.266 23.99V19.076H111.448V32H113.266V26.618ZM127.632 32H129.144V25.88C129.144 23.612 127.776 22.28 125.418 22.28C123.186 22.28 121.656 23.702 121.566 25.844H123.222C123.276 24.512 124.086 23.72 125.418 23.72C126.678 23.72 127.416 24.494 127.416 25.862V26.564C126.642 26.474 126.192 26.456 125.634 26.456C122.79 26.456 121.296 27.428 121.296 29.3C121.296 31.046 122.592 32.18 124.572 32.18C125.976 32.18 127.038 31.586 127.632 30.524V32ZM123.024 29.246C123.024 28.13 123.924 27.59 125.742 27.59C126.21 27.59 126.714 27.608 127.416 27.698V28.472C127.416 29.93 126.462 30.884 124.932 30.884C123.762 30.884 123.024 30.236 123.024 29.246ZM133.392 27.122C133.392 25.016 134.886 24.116 136.938 24.224V22.334C135.372 22.334 133.932 23.162 133.266 24.476V22.46H131.574V32H133.392V27.122ZM142.266 32.18C144.516 32.18 146.154 30.902 146.622 28.778H144.822C144.516 30.02 143.58 30.758 142.23 30.758C140.628 30.758 139.656 29.624 139.512 27.68H146.622C146.946 24.584 145.056 22.28 142.212 22.28C139.584 22.28 137.658 24.35 137.658 27.176C137.658 30.182 139.512 32.18 142.266 32.18ZM142.176 23.648C143.652 23.648 144.606 24.71 144.696 26.474H139.53C139.728 24.692 140.718 23.648 142.176 23.648Z" fill="#767676"/>
</svg>
